<svg width="1411" height="548" fill="none" xmlns="http://www.w3.org/2000/svg"><path fill="#0D0D0D" d="M43.434.767l1366.663 95.566-31.53 450.9L11.904 451.665z"/><path fill="#B7097F" d="M22.335 69.988l1369.791-23.91 7.54 431.934-1369.792 23.91z"/><path fill="#000" stroke="#000" stroke-width="7" d="M32.5 54.5h1357v439H32.5z"/><path d="M18.61 39.084l-3.173 13.575L.854 59.447c-1.128.516-1.09 1.548-.172 2.064L12.15 67.86l-2.6 19.082c-.134.956.67 1.549 1.682.516L26.255 71.99l15.5 2.983c1.893.363 1.759-.918 1.396-1.644L35.926 58.7l11.315-17.84c.745-1.185.096-1.873-.994-1.453L27.65 46.904l-7.34-8.394c-.936-1.09-1.51-.21-1.7.574z" fill="#B7097F"/></svg>