<svg width="44" height="49" fill="none" xmlns="http://www.w3.org/2000/svg"><path fill-rule="evenodd" clip-rule="evenodd" d="M4.249 30C5.677 38.513 13.08 45 22 45s16.323-6.487 17.751-15h4.046C42.334 40.731 33.133 49 22 49 10.867 49 1.666 40.731.203 30h4.046z" fill="#B7097F"/><path fill-rule="evenodd" clip-rule="evenodd" d="M11.169 9.76a2 2 0 01-.329 2.809C6.703 15.84 4 21.072 4 27c0 10.039 7.707 18 17 18a2 2 0 010 4C9.307 49 0 39.053 0 27c0-7.157 3.267-13.543 8.36-17.569a2 2 0 012.809.329zm22.544 1.012a2 2 0 01-2.732.732c-4.023-2.323-8.507-2.995-12.62-2.238a2 2 0 01-.723-3.934c5.034-.926 10.485-.097 15.343 2.708a2 2 0 01.732 2.732z" fill="#B7097F"/><path opacity=".7" fill-rule="evenodd" clip-rule="evenodd" d="M16.293 24.793a1 1 0 011.414 0L22 29.086l4.293-4.293a1 1 0 011.414 1.414l-5 5a1 1 0 01-1.414 0l-5-5a1 1 0 010-1.414z" fill="#fff"/></svg>