<svg width="73" height="64" fill="none" xmlns="http://www.w3.org/2000/svg"><path d="M8.816 23.468v.157l.052.193.16.589-19.257 14.642-.027.02-.026.022c-.764.637-1.453 1.799-.95 3.056.505 1.263 1.833 1.668 2.988 1.668h.022l27.44-.403 11.063 16.476.005.007c.428.63.928 1.157 1.533 1.473.655.343 1.369.4 2.03.161.606-.219 1.032-.636 1.309-1a4.11 4.11 0 00.607-1.165l.002-.004 3.56-10.516.015-.042.012-.044.237-.871.15-.448 1.239-3.553.003-.01.004-.01 1.389-4.167 26.102-5.863.01-.002.008-.003c1.056-.251 2.329-.925 2.526-2.303.208-1.457-.938-2.387-1.88-2.777l-23.12-9.773.921-13.515.001-.018.001-.019c.027-.618-.046-1.269-.361-1.836a2.243 2.243 0 00-1.561-1.132c-.563-.107-1.088.001-1.468.127-.395.13-.759.32-1.062.512L27.705 12.32 8.68 5.445l-.005-.002c-1.067-.391-2.346-.428-3.292.413-.958.852-1.037 2.124-.732 3.16l1.57 5.374.003.009 2.592 9.069z" stroke="#E84C0A" stroke-width="3" stroke-miterlimit="10"/></svg>