<svg width="93" height="43" fill="none" xmlns="http://www.w3.org/2000/svg"><path d="M2.367 1L1.14 19.257l71.346 4.797 1.227-18.257L2.367 1z" fill="#000"/><path d="M2.228 1L1 19.256l71.346 4.797 1.227-18.256L2.228 1z" stroke="#fff" stroke-width="1.5" stroke-miterlimit="22.926"/><path d="M61.19 14.225l.2-3.128-1.066-.074c-1.264-.075-1.908.397-1.982 1.44-.074 1.067.52 1.613 1.784 1.712l1.065.05zm1.933 5.362l-2.353-.15.247-3.723-2.849 3.55-2.75-.174 3.097-3.475c-.793-.174-1.412-.571-1.858-1.216a3.274 3.274 0 01-.57-2.21c.075-1.117.496-1.96 1.24-2.532.718-.57 1.634-.819 2.75-.744l3.765.248-.719 10.426zm-11.767-4.642l-.942-3.823-1.462 3.674 2.404.149zm3.641 4.095l-2.576-.173-.545-1.937-3.716-.248-.818 1.837-2.552-.174 4.831-10.177 1.933.124 3.443 10.748zm-11.148-.744l-2.354-.15.298-4.294-3.617-.248-.298 4.27-2.353-.15.693-10.45 2.354.15-.273 4.045 3.617.249.273-4.046 2.354.148-.694 10.476zM29.827 8.962l-.174 2.73 1.066.075c1.164.075 1.783-.347 1.858-1.266.05-.893-.496-1.39-1.66-1.464l-1.09-.075zm-.545 8.34l-2.354-.148.694-10.45 3.617.248c1.164.074 2.08.422 2.7 1.067.67.67.966 1.564.892 2.73-.074 1.167-.52 2.011-1.313 2.557-.718.472-1.685.67-2.899.596l-1.114-.074-.223 3.475zm-4.063-.272l-5.674-.373.694-10.45 5.673.372-.148 2.11-3.32-.223-.124 1.986 3.245.223-.148 2.11-3.246-.223-.148 2.11 3.32.223-.124 2.135zm-7.556-.497l-2.354-.149.248-3.822c-.719.099-1.24.149-1.61.124-2.33-.15-3.444-1.316-3.296-3.5l.248-3.6 2.28.15-.224 3.45c-.074.918.372 1.415 1.313 1.49.496.024.967 0 1.462-.125l.297-4.617 2.354.149-.718 10.45zm74.715 4.751L17.05 23.725 17.673 43 93 40.558l-.622-19.274z" fill="#fff"/><path d="M84.177 32.782l-1.295-3.67-1.074 3.743 2.369-.073zm3.955 3.67l-2.564.073-.708-1.835-3.687.123-.635 1.883-2.515.074 3.76-10.447 1.905-.074 4.444 10.203zm-10.06 2.324l-2.1.073-.073-2.006-6.91.22-.343-10.324 2.32-.074.269 8.245 3.394-.097-.269-8.246 2.32-.073.269 8.245.977-.024.146 4.061zm-10.988-1.64l-2.271.074-.195-6.386-4.127 6.533-1.954.073-.341-10.324 2.32-.074.195 6.313 4.126-6.46 1.905-.073.342 10.325zm-10.427.343l-2.32.074-.122-4.257-3.59.122.147 4.233-2.32.073-.341-10.3 2.32-.074.122 3.988 3.59-.122-.123-4.012 2.32-.074.317 10.35zm-9.596-7.951l-2.051.073.268 8.245-2.32.074-.268-8.245-2.027.073-.073-2.08 6.397-.195.074 2.055zm-9.67 3.425l-.098-3.107-1.05.024c-1.245.05-1.83.563-1.806 1.59.024 1.053.659 1.542 1.904 1.493h1.05zm2.418 5.065l-2.32.073-.122-3.67-2.467 3.743-2.71.098 2.686-3.719c-.781-.097-1.44-.416-1.929-1.003a3.377 3.377 0 01-.781-2.104c-.025-1.1.293-1.982.952-2.618.635-.611 1.514-.954 2.613-.978l3.711-.123.367 10.3zm-8.962.293l-2.32.074-.268-8.245-3.37.097.268 8.245-2.32.074-.341-10.325 8.034-.269.317 10.35z" fill="#000"/></svg>